<?xml version="1.0" encoding="UTF-8" standalone="no"?>
<svg
   xmlns:dc="http://purl.org/dc/elements/1.1/"
   xmlns:cc="http://creativecommons.org/ns#"
   xmlns:rdf="http://www.w3.org/1999/02/22-rdf-syntax-ns#"
   xmlns:svg="http://www.w3.org/2000/svg"
   xmlns="http://www.w3.org/2000/svg"
   xmlns:xlink="http://www.w3.org/1999/xlink"
   id="svg1559"
   version="1.1"
   viewBox="0 0 14.084024 14.084024"
   height="14.084024mm"
   width="14.084024mm">
  <defs
     id="defs1553">
    <linearGradient
       xlink:href="#linearGradient4280"
       id="linearGradient5089"
       gradientUnits="userSpaceOnUse"
       x1="2.1428249"
       y1="170.71429"
       x2="349.28568"
       y2="170.71429" />
    <linearGradient
       id="linearGradient4280">
      <stop
         style="stop-color:#f07a2a;stop-opacity:1;"
         offset="0"
         id="stop4276" />
      <stop
         style="stop-color:#d35f5f;stop-opacity:1"
         offset="1"
         id="stop4278" />
    </linearGradient>
  </defs>
  <metadata
     id="metadata1556">
    <rdf:RDF>
      <cc:Work
         rdf:about="">
        <dc:format>image/svg+xml</dc:format>
        <dc:type
           rdf:resource="http://purl.org/dc/dcmitype/StillImage" />
        <dc:title></dc:title>
      </cc:Work>
    </rdf:RDF>
  </metadata>
  <g
     transform="translate(-57.213941,-120.62465)"
     id="layer1">
    <g
       transform="matrix(0.15208845,0,0,0.15208845,68.308702,111.78542)"
       id="layer1-8">
      <path
         style="opacity:1;fill:url(#linearGradient5089);fill-opacity:1;stroke:none;stroke-width:4.45454502;stroke-linecap:round;stroke-linejoin:round;stroke-miterlimit:4;stroke-dasharray:none;stroke-dashoffset:0;stroke-opacity:1"
         d="M 0,0 V 350 H 23.572266 V 320 H 144.28516 v 30 H 350 V 0 Z m 287.48633,179.46289 c 9.28791,0 17.56981,1.97494 24.84765,5.92578 7.27785,3.8815 12.85872,9.39203 16.74024,16.53125 3.95083,7.1392 5.92578,15.24814 5.92578,24.32813 h -30.46289 c 0,-7.06991 -1.52446,-12.44166 -4.57422,-16.11524 -2.98045,-3.74289 -7.31245,-5.61328 -12.99609,-5.61328 -5.33709,0 -9.49612,1.59287 -12.47657,4.78125 -2.98044,3.11909 -4.4707,7.34848 -4.4707,12.68555 0,4.15876 1.66322,7.9357 4.99024,11.33203 3.32701,3.32702 9.21767,6.79223 17.67382,10.39648 14.76362,5.33707 25.47293,11.88735 32.12696,19.65039 6.72334,7.76303 10.08593,17.63976 10.08593,29.63086 0,13.16942 -4.19323,23.46244 -12.58007,30.87891 -8.38685,7.41647 -19.78998,11.125 -34.20703,11.125 -9.77313,0 -18.67845,-2.00916 -26.71876,-6.0293 -8.04028,-4.02013 -14.34918,-9.77398 -18.92382,-17.25976 -4.50533,-7.48579 -6.75782,-16.32274 -6.75782,-26.51172 h 30.67188 c 0,8.7334 1.69742,15.07455 5.09375,19.02539 3.39632,3.95082 8.94103,5.92578 16.63477,5.92578 10.67416,0 16.01171,-5.64735 16.01171,-16.94531 0,-6.16885 -1.59481,-10.81257 -4.7832,-13.93164 -3.11907,-3.18839 -8.83676,-6.48257 -17.1543,-9.87891 -15.17949,-5.75297 -26.09597,-12.47621 -32.75,-20.16992 -6.65402,-7.76302 -9.98045,-16.91171 -9.98047,-27.44727 0,-12.75353 4.50497,-22.97619 13.51563,-30.66992 9.07997,-7.76302 20.58571,-11.64453 34.51758,-11.64453 z m -103.76172,2.07813 h 30.56641 v 151.3789 h -30.56641 z"
         transform="matrix(0.26458333,0,0,0.26458333,-72.949402,58.119041)"
         id="rect4487" />
    </g>
  </g>
</svg>
