<?xml version="1.0" encoding="UTF-8" standalone="no"?>
<!-- Created with Inkscape (http://www.inkscape.org/) -->

<svg
   xmlns:dc="http://purl.org/dc/elements/1.1/"
   xmlns:cc="http://creativecommons.org/ns#"
   xmlns:rdf="http://www.w3.org/1999/02/22-rdf-syntax-ns#"
   xmlns:svg="http://www.w3.org/2000/svg"
   xmlns="http://www.w3.org/2000/svg"
   xmlns:xlink="http://www.w3.org/1999/xlink"
   xmlns:sodipodi="http://sodipodi.sourceforge.net/DTD/sodipodi-0.dtd"
   xmlns:inkscape="http://www.inkscape.org/namespaces/inkscape"
   width="15.852052mm"
   height="15.464286mm"
   viewBox="0 0 15.852052 15.464286"
   version="1.1"
   id="svg2742"
   inkscape:version="0.92.2 5c3e80d, 2017-08-06"
   sodipodi:docname="logo-github.svg">
  <defs
     id="defs2736">
    <linearGradient
       inkscape:collect="always"
       xlink:href="#linearGradient4280"
       id="linearGradient3498"
       x1="0"
       y1="219.27425"
       x2="438.54599"
       y2="219.27425"
       gradientUnits="userSpaceOnUse" />
    <linearGradient
       id="linearGradient4280"
       inkscape:collect="always">
      <stop
         id="stop4276"
         offset="0"
         style="stop-color:#f07a2a;stop-opacity:1;" />
      <stop
         id="stop4278"
         offset="1"
         style="stop-color:#d35f5f;stop-opacity:1" />
    </linearGradient>
    <linearGradient
       inkscape:collect="always"
       xlink:href="#linearGradient4280"
       id="linearGradient4408"
       gradientUnits="userSpaceOnUse"
       x1="0"
       y1="219.27425"
       x2="438.54599"
       y2="219.27425" />
    <linearGradient
       inkscape:collect="always"
       xlink:href="#linearGradient4280"
       id="linearGradient4410"
       gradientUnits="userSpaceOnUse"
       x1="0"
       y1="219.27425"
       x2="438.54599"
       y2="219.27425" />
    <linearGradient
       inkscape:collect="always"
       xlink:href="#linearGradient4280"
       id="linearGradient4412"
       gradientUnits="userSpaceOnUse"
       x1="0"
       y1="219.27425"
       x2="438.54599"
       y2="219.27425" />
    <linearGradient
       inkscape:collect="always"
       xlink:href="#linearGradient4280"
       id="linearGradient4414"
       gradientUnits="userSpaceOnUse"
       x1="0"
       y1="219.27425"
       x2="438.54599"
       y2="219.27425" />
    <linearGradient
       inkscape:collect="always"
       xlink:href="#linearGradient4280"
       id="linearGradient4416"
       gradientUnits="userSpaceOnUse"
       x1="0"
       y1="219.27425"
       x2="438.54599"
       y2="219.27425" />
    <linearGradient
       inkscape:collect="always"
       xlink:href="#linearGradient4280"
       id="linearGradient4418"
       gradientUnits="userSpaceOnUse"
       x1="0"
       y1="219.27425"
       x2="438.54599"
       y2="219.27425" />
    <linearGradient
       inkscape:collect="always"
       xlink:href="#linearGradient4280"
       id="linearGradient4420"
       gradientUnits="userSpaceOnUse"
       x1="0"
       y1="219.27425"
       x2="438.54599"
       y2="219.27425" />
    <linearGradient
       inkscape:collect="always"
       xlink:href="#linearGradient4280"
       id="linearGradient4422"
       gradientUnits="userSpaceOnUse"
       x1="0"
       y1="219.27425"
       x2="438.54599"
       y2="219.27425" />
    <linearGradient
       inkscape:collect="always"
       xlink:href="#linearGradient4280"
       id="linearGradient4424"
       gradientUnits="userSpaceOnUse"
       x1="0"
       y1="219.27425"
       x2="438.54599"
       y2="219.27425" />
    <linearGradient
       inkscape:collect="always"
       xlink:href="#linearGradient4280"
       id="linearGradient4426"
       gradientUnits="userSpaceOnUse"
       x1="0"
       y1="219.27425"
       x2="438.54599"
       y2="219.27425" />
    <linearGradient
       inkscape:collect="always"
       xlink:href="#linearGradient4280"
       id="linearGradient4428"
       gradientUnits="userSpaceOnUse"
       x1="0"
       y1="219.27425"
       x2="438.54599"
       y2="219.27425" />
    <linearGradient
       inkscape:collect="always"
       xlink:href="#linearGradient4280"
       id="linearGradient4430"
       gradientUnits="userSpaceOnUse"
       x1="0"
       y1="219.27425"
       x2="438.54599"
       y2="219.27425" />
    <linearGradient
       inkscape:collect="always"
       xlink:href="#linearGradient4280"
       id="linearGradient4432"
       gradientUnits="userSpaceOnUse"
       x1="0"
       y1="219.27425"
       x2="438.54599"
       y2="219.27425" />
    <linearGradient
       inkscape:collect="always"
       xlink:href="#linearGradient4280"
       id="linearGradient4434"
       gradientUnits="userSpaceOnUse"
       x1="0"
       y1="219.27425"
       x2="438.54599"
       y2="219.27425" />
    <linearGradient
       inkscape:collect="always"
       xlink:href="#linearGradient4280"
       id="linearGradient4436"
       gradientUnits="userSpaceOnUse"
       x1="0"
       y1="219.27425"
       x2="438.54599"
       y2="219.27425" />
    <linearGradient
       inkscape:collect="always"
       xlink:href="#linearGradient4280"
       id="linearGradient4438"
       gradientUnits="userSpaceOnUse"
       x1="0"
       y1="219.27425"
       x2="438.54599"
       y2="219.27425" />
    <linearGradient
       inkscape:collect="always"
       xlink:href="#linearGradient4280"
       id="linearGradient4440"
       gradientUnits="userSpaceOnUse"
       x1="0"
       y1="219.27425"
       x2="438.54599"
       y2="219.27425" />
  </defs>
  <sodipodi:namedview
     id="base"
     pagecolor="#ffffff"
     bordercolor="#666666"
     borderopacity="1.0"
     inkscape:pageopacity="0.0"
     inkscape:pageshadow="2"
     inkscape:zoom="1.979899"
     inkscape:cx="69.918346"
     inkscape:cy="43.254339"
     inkscape:document-units="mm"
     inkscape:current-layer="layer1"
     showgrid="false"
     fit-margin-top="0"
     fit-margin-left="0"
     fit-margin-right="0"
     fit-margin-bottom="0"
     inkscape:window-width="1360"
     inkscape:window-height="719"
     inkscape:window-x="0"
     inkscape:window-y="25"
     inkscape:window-maximized="1" />
  <metadata
     id="metadata2739">
    <rdf:RDF>
      <cc:Work
         rdf:about="">
        <dc:format>image/svg+xml</dc:format>
        <dc:type
           rdf:resource="http://purl.org/dc/dcmitype/StillImage" />
        <dc:title></dc:title>
      </cc:Work>
    </rdf:RDF>
  </metadata>
  <g
     inkscape:label="Capa 1"
     inkscape:groupmode="layer"
     id="layer1"
     transform="translate(-110.70201,-248.20834)">
    <g
       id="g3120"
       transform="matrix(0.03614684,0,0,0.03614684,110.70201,248.01441)"
       style="fill:url(#linearGradient3498);fill-opacity:1">
      <g
         id="g3064"
         style="fill:url(#linearGradient4410);fill-opacity:1">
        <path
           id="path3062"
           d="M 409.132,114.573 C 389.524,80.977 362.927,54.379 329.334,34.773 295.736,15.166 259.057,5.365 219.271,5.365 c -39.781,0 -76.472,9.804 -110.063,29.408 -33.596,19.605 -60.192,46.204 -79.8,79.8 C 9.803,148.168 0,184.854 0,224.63 c 0,47.78 13.94,90.745 41.827,128.906 27.884,38.164 63.906,64.572 108.063,79.227 5.14,0.954 8.945,0.283 11.419,-1.996 2.475,-2.282 3.711,-5.14 3.711,-8.562 0,-0.571 -0.049,-5.708 -0.144,-15.417 -0.098,-9.709 -0.144,-18.179 -0.144,-25.406 l -6.567,1.136 c -4.187,0.767 -9.469,1.092 -15.846,1 -6.374,-0.089 -12.991,-0.757 -19.842,-1.999 -6.854,-1.231 -13.229,-4.086 -19.13,-8.559 -5.898,-4.473 -10.085,-10.328 -12.56,-17.556 l -2.855,-6.57 c -1.903,-4.374 -4.899,-9.233 -8.992,-14.559 -4.093,-5.331 -8.232,-8.945 -12.419,-10.848 l -1.999,-1.431 c -1.332,-0.951 -2.568,-2.098 -3.711,-3.429 -1.142,-1.331 -1.997,-2.663 -2.568,-3.997 -0.572,-1.335 -0.098,-2.43 1.427,-3.289 1.525,-0.859 4.281,-1.276 8.28,-1.276 l 5.708,0.853 c 3.807,0.763 8.516,3.042 14.133,6.851 5.614,3.806 10.229,8.754 13.846,14.842 4.38,7.806 9.657,13.754 15.846,17.847 6.184,4.093 12.419,6.136 18.699,6.136 6.28,0 11.704,-0.476 16.274,-1.423 4.565,-0.952 8.848,-2.383 12.847,-4.285 1.713,-12.758 6.377,-22.559 13.988,-29.41 -10.848,-1.14 -20.601,-2.857 -29.264,-5.14 -8.658,-2.286 -17.605,-5.996 -26.835,-11.14 -9.235,-5.137 -16.896,-11.516 -22.985,-19.126 -6.09,-7.614 -11.088,-17.61 -14.987,-29.979 -3.901,-12.374 -5.852,-26.648 -5.852,-42.826 0,-23.035 7.52,-42.637 22.557,-58.817 -7.044,-17.318 -6.379,-36.732 1.997,-58.24 5.52,-1.715 13.706,-0.428 24.554,3.853 10.85,4.283 18.794,7.952 23.84,10.994 5.046,3.041 9.089,5.618 12.135,7.708 17.705,-4.947 35.976,-7.421 54.818,-7.421 18.842,0 37.117,2.474 54.823,7.421 l 10.849,-6.849 c 7.419,-4.57 16.18,-8.758 26.262,-12.565 10.088,-3.805 17.802,-4.853 23.134,-3.138 8.562,21.509 9.325,40.922 2.279,58.24 15.036,16.18 22.559,35.787 22.559,58.817 0,16.178 -1.958,30.497 -5.853,42.966 -3.9,12.471 -8.941,22.457 -15.125,29.979 -6.191,7.521 -13.901,13.85 -23.131,18.986 -9.232,5.14 -18.182,8.85 -26.84,11.136 -8.662,2.286 -18.415,4.004 -29.263,5.146 9.894,8.562 14.842,22.077 14.842,40.539 v 60.237 c 0,3.422 1.19,6.279 3.572,8.562 2.379,2.279 6.136,2.95 11.276,1.995 44.163,-14.653 80.185,-41.062 108.068,-79.226 27.88,-38.161 41.825,-81.126 41.825,-128.906 -0.01,-39.771 -9.818,-76.454 -29.414,-110.049 z"
           inkscape:connector-curvature="0"
           style="fill:url(#linearGradient4408);fill-opacity:1" />
      </g>
      <g
         id="g3066"
         style="fill:url(#linearGradient4412);fill-opacity:1" />
      <g
         id="g3068"
         style="fill:url(#linearGradient4414);fill-opacity:1" />
      <g
         id="g3070"
         style="fill:url(#linearGradient4416);fill-opacity:1" />
      <g
         id="g3072"
         style="fill:url(#linearGradient4418);fill-opacity:1" />
      <g
         id="g3074"
         style="fill:url(#linearGradient4420);fill-opacity:1" />
      <g
         id="g3076"
         style="fill:url(#linearGradient4422);fill-opacity:1" />
      <g
         id="g3078"
         style="fill:url(#linearGradient4424);fill-opacity:1" />
      <g
         id="g3080"
         style="fill:url(#linearGradient4426);fill-opacity:1" />
      <g
         id="g3082"
         style="fill:url(#linearGradient4428);fill-opacity:1" />
      <g
         id="g3084"
         style="fill:url(#linearGradient4430);fill-opacity:1" />
      <g
         id="g3086"
         style="fill:url(#linearGradient4432);fill-opacity:1" />
      <g
         id="g3088"
         style="fill:url(#linearGradient4434);fill-opacity:1" />
      <g
         id="g3090"
         style="fill:url(#linearGradient4436);fill-opacity:1" />
      <g
         id="g3092"
         style="fill:url(#linearGradient4438);fill-opacity:1" />
      <g
         id="g3094"
         style="fill:url(#linearGradient4440);fill-opacity:1" />
    </g>
  </g>
</svg>
