<?xml version="1.0" encoding="UTF-8" standalone="no"?>
<svg
   xmlns:dc="http://purl.org/dc/elements/1.1/"
   xmlns:cc="http://creativecommons.org/ns#"
   xmlns:rdf="http://www.w3.org/1999/02/22-rdf-syntax-ns#"
   xmlns:svg="http://www.w3.org/2000/svg"
   xmlns="http://www.w3.org/2000/svg"
   id="svg1588"
   version="1.1"
   viewBox="0 0 4.333333 5"
   height="5mm"
   width="4.333333mm">
  <defs
     id="defs1582" />
  <metadata
     id="metadata1585">
    <rdf:RDF>
      <cc:Work
         rdf:about="">
        <dc:format>image/svg+xml</dc:format>
        <dc:type
           rdf:resource="http://purl.org/dc/dcmitype/StillImage" />
        <dc:title></dc:title>
      </cc:Work>
    </rdf:RDF>
  </metadata>
  <g
     transform="translate(5.4334948,-10.047287)"
     id="layer1">
    <g
       id="g2032"
       transform="matrix(0.08333333,0,0,0.08333333,-5.7668281,10.047287)"
       style="fill:#ed782f;fill-opacity:1">
      <g
         id="g1971"
         style="fill:#ed782f;fill-opacity:1">
        <path
           id="path1959"
           d="m 20,49 c -2.206,0 -4,1.794 -4,4 0,2.206 1.794,4 4,4 2.206,0 4,-1.794 4,-4 0,-2.206 -1.794,-4 -4,-4 z m 0,6 c -1.103,0 -2,-0.897 -2,-2 0,-1.103 0.897,-2 2,-2 1.103,0 2,0.897 2,2 0,1.103 -0.897,2 -2,2 z"
           style="fill:#ed782f;fill-opacity:1" />
        <path
           id="path1961"
           d="m 17,5 h 4 C 21.552,5 22,4.553 22,4 22,3.447 21.552,3 21,3 h -4 c -0.552,0 -1,0.447 -1,1 0,0.553 0.448,1 1,1 z"
           style="fill:#ed782f;fill-opacity:1" />
        <path
           id="path1963"
           d="m 24,5 h 1 C 25.552,5 26,4.553 26,4 26,3.447 25.552,3 25,3 h -1 c -0.552,0 -1,0.447 -1,1 0,0.553 0.448,1 1,1 z"
           style="fill:#ed782f;fill-opacity:1" />
        <path
           id="path1965"
           d="M 56,12 H 38 V 4.405 C 38,1.977 36.024,0 33.595,0 H 8.405 C 5.976,0 4,1.977 4,4.405 V 55.594 C 4,58.023 5.976,60 8.405,60 H 33.594 C 36.024,60 38,58.023 38,55.595 V 33 H 56 Z M 8.405,2 H 33.594 C 34.921,2 36,3.079 36,4.405 V 6 H 6 V 4.405 C 6,3.079 7.079,2 8.405,2 Z m 25.19,56 H 8.405 C 7.079,58 6,56.921 6,55.595 V 48 h 30 v 7.595 C 36,56.921 34.921,58 33.595,58 Z M 36,46 H 6 V 8 h 30 v 4 H 18 v 21 h 4 v 7 l 9.333,-7 H 36 Z M 54,31 H 38 30.667 L 24,36 V 31 H 20 V 14 h 18 16 z"
           style="fill:#ed782f;fill-opacity:1" />
        <path
           id="path1967"
           d="m 25,21 h 10 c 0.552,0 1,-0.447 1,-1 0,-0.553 -0.448,-1 -1,-1 H 25 c -0.552,0 -1,0.447 -1,1 0,0.553 0.448,1 1,1 z"
           style="fill:#ed782f;fill-opacity:1" />
        <path
           id="path1969"
           d="m 24,25 c 0,0.553 0.448,1 1,1 h 24 c 0.552,0 1,-0.447 1,-1 0,-0.553 -0.448,-1 -1,-1 H 25 c -0.552,0 -1,0.447 -1,1 z"
           style="fill:#ed782f;fill-opacity:1" />
      </g>
      <g
         id="g1973"
         style="fill:#ed782f;fill-opacity:1" />
      <g
         id="g1975"
         style="fill:#ed782f;fill-opacity:1" />
      <g
         id="g1977"
         style="fill:#ed782f;fill-opacity:1" />
      <g
         id="g1979"
         style="fill:#ed782f;fill-opacity:1" />
      <g
         id="g1981"
         style="fill:#ed782f;fill-opacity:1" />
      <g
         id="g1983"
         style="fill:#ed782f;fill-opacity:1" />
      <g
         id="g1985"
         style="fill:#ed782f;fill-opacity:1" />
      <g
         id="g1987"
         style="fill:#ed782f;fill-opacity:1" />
      <g
         id="g1989"
         style="fill:#ed782f;fill-opacity:1" />
      <g
         id="g1991"
         style="fill:#ed782f;fill-opacity:1" />
      <g
         id="g1993"
         style="fill:#ed782f;fill-opacity:1" />
      <g
         id="g1995"
         style="fill:#ed782f;fill-opacity:1" />
      <g
         id="g1997"
         style="fill:#ed782f;fill-opacity:1" />
      <g
         id="g1999"
         style="fill:#ed782f;fill-opacity:1" />
      <g
         id="g2001"
         style="fill:#ed782f;fill-opacity:1" />
    </g>
  </g>
</svg>
