<?xml version="1.0" encoding="UTF-8" standalone="no"?>
<svg
   xmlns:dc="http://purl.org/dc/elements/1.1/"
   xmlns:cc="http://creativecommons.org/ns#"
   xmlns:rdf="http://www.w3.org/1999/02/22-rdf-syntax-ns#"
   xmlns:svg="http://www.w3.org/2000/svg"
   xmlns="http://www.w3.org/2000/svg"
   id="svg1588"
   version="1.1"
   viewBox="0 0 4.7702174 5"
   height="5mm"
   width="4.7702174mm">
  <defs
     id="defs1582" />
  <metadata
     id="metadata1585">
    <rdf:RDF>
      <cc:Work
         rdf:about="">
        <dc:format>image/svg+xml</dc:format>
        <dc:type
           rdf:resource="http://purl.org/dc/dcmitype/StillImage" />
        <dc:title></dc:title>
      </cc:Work>
    </rdf:RDF>
  </metadata>
  <g
     transform="translate(7.6767754,-8.7500001)"
     id="layer1">
    <g
       id="g1861"
       transform="matrix(0.09686065,0,0,0.09686065,-7.7915553,8.7500532)"
       style="fill:#ec7632;fill-opacity:1">
      <path
         id="path1806"
         d="m 50.14,19.206 c -0.391,-0.391 -1.023,-0.391 -1.414,0 L 21.432,46.5 c -2.012,2.012 -4.697,3.119 -7.563,3.119 -2.867,0 -5.553,-1.107 -7.564,-3.119 -2.011,-2.012 -3.119,-4.697 -3.119,-7.564 0,-2.866 1.107,-5.552 3.119,-7.563 L 33.598,4.078 c 2.897,-2.896 7.445,-2.719 10.579,0.413 3.133,3.133 3.311,7.682 0.414,10.579 l -25.64,25.641 c -1.433,1.433 -3.767,1.434 -5.203,0 -1.434,-1.435 -1.434,-3.769 0,-5.203 L 31.117,18.139 c 0.391,-0.391 0.391,-1.023 0,-1.414 -0.391,-0.391 -1.023,-0.391 -1.414,0 L 12.334,34.093 c -2.214,2.214 -2.214,5.816 0,8.031 2.216,2.216 5.819,2.212 8.031,0 L 46.006,16.483 C 49.709,12.779 49.531,7.015 45.592,3.076 41.654,-0.862 35.889,-1.041 32.185,2.663 L 4.89,29.958 c -2.39,2.389 -3.705,5.577 -3.705,8.978 0,3.401 1.315,6.59 3.705,8.979 2.389,2.39 5.577,3.705 8.979,3.705 3.4,0 6.589,-1.315 8.978,-3.705 L 50.14,20.62 c 0.391,-0.391 0.391,-1.024 0,-1.414 z"
         style="fill:#ec7632;fill-opacity:1" />
      <g
         id="g1808"
         style="fill:#ec7632;fill-opacity:1" />
      <g
         id="g1810"
         style="fill:#ec7632;fill-opacity:1" />
      <g
         id="g1812"
         style="fill:#ec7632;fill-opacity:1" />
      <g
         id="g1814"
         style="fill:#ec7632;fill-opacity:1" />
      <g
         id="g1816"
         style="fill:#ec7632;fill-opacity:1" />
      <g
         id="g1818"
         style="fill:#ec7632;fill-opacity:1" />
      <g
         id="g1820"
         style="fill:#ec7632;fill-opacity:1" />
      <g
         id="g1822"
         style="fill:#ec7632;fill-opacity:1" />
      <g
         id="g1824"
         style="fill:#ec7632;fill-opacity:1" />
      <g
         id="g1826"
         style="fill:#ec7632;fill-opacity:1" />
      <g
         id="g1828"
         style="fill:#ec7632;fill-opacity:1" />
      <g
         id="g1830"
         style="fill:#ec7632;fill-opacity:1" />
      <g
         id="g1832"
         style="fill:#ec7632;fill-opacity:1" />
      <g
         id="g1834"
         style="fill:#ec7632;fill-opacity:1" />
      <g
         id="g1836"
         style="fill:#ec7632;fill-opacity:1" />
    </g>
  </g>
</svg>
